<svg xmlns="http://www.w3.org/2000/svg" version="1.1" xmlns:xlink="http://www.w3.org/1999/xlink" xmlns:svgjs="http://svgjs.dev/svgjs" width="1500" height="1500" viewBox="0 0 1500 1500"><rect width="1500" height="1500" fill="#fbcd08"></rect><g transform="matrix(0.6666666666666666,0,0,0.6666666666666666,249.39393939393938,661.8566928250709)"><svg viewBox="0 0 396 70" data-background-color="#fbcd08" preserveAspectRatio="xMidYMid meet" height="265" width="1500" xmlns="http://www.w3.org/2000/svg" xmlns:xlink="http://www.w3.org/1999/xlink"><g id="tight-bounds" transform="matrix(1,0,0,1,0.2400000000000091,-0.07529338351869796)"><svg viewBox="0 0 395.52 70.15053089201179" height="70.15053089201179" width="395.52"><g><svg viewBox="0 0 446.3052071677236 79.15793695055905" height="70.15053089201179" width="395.52"><g><svg viewBox="0 0 356.12052 79.15793695055905" height="79.15793695055905" width="356.12052"><g><path d="M0 79.158v-79.158h356.121v79.158z" fill="#372e18" stroke="transparent" stroke-width="0" rx="0%" data-fill-palette-color="tertiary"></path><path d="M3.283 75.875v-72.592h349.554v72.592z" fill="#fbcd08" stroke="transparent" stroke-width="0" rx="0%" data-fill-palette-color="quaternary"></path><path d="M9.85 69.308v-59.458h336.421v59.458z" fill="#372e18" stroke="transparent" stroke-width="0" data-fill-palette-color="tertiary"></path></g><g transform="matrix(1,0,0,1,19.69974,19.69974)" id="textblocktransform"><svg viewBox="0 0 316.72104 39.75845695055905" height="39.75845695055905" width="316.72104" id="textblock"><g><svg viewBox="0 0 316.72104 21.694037222587614" height="21.694037222587614" width="316.72104"><g transform="matrix(1,0,0,1,0,0)"><svg width="316.72104" viewBox="0.5 -36 532.12 36.45" height="21.694037222587614" data-palette-color="#fbcd08"><path d="M15.8-2.55Q15.7-1.1 14.28-0.55 12.85 0 9.15 0 5.45 0 2.98-0.68 0.5-1.35 0.5-2.4L0.5-2.4Q0.5-3.6 4.95-17.73 9.4-31.85 10.05-34L10.05-34Q10.3-34.65 14.08-35.08 17.85-35.5 22.18-35.5 26.5-35.5 26.95-34L26.95-34Q36.4-2.6 36.4-2.1 36.4-1.6 35.8-1.1L35.8-1.1Q34.4 0 30.25 0L30.25 0Q21.4 0 21.2-2.1L21.2-2.1 20.85-5.35 16.05-5.35 15.8-2.55ZM17.1-14.85L19.8-14.85 19.05-23.85 17.95-23.85 17.1-14.85ZM46.15 0L46.15 0Q43.75 0 43-0.35 42.25-0.7 41.95-1.55L41.95-1.55 30.9-32.05Q30.9-33 34.47-34.25 38.05-35.5 41.7-35.5L41.7-35.5Q46.4-35.5 46.7-32.55L46.7-32.55 48.4-16.7 49.1-16.7 50.5-32.55Q50.75-35.5 57.25-35.5L57.25-35.5Q59.75-35.5 60.6-34.83 61.45-34.15 61.55-33.05L61.55-33.05 63.2-16.7 63.9-16.7 65.2-32.55Q65.35-34 68.62-34.75 71.9-35.5 75.12-35.5 78.35-35.5 79.52-34.55 80.7-33.6 80.7-32.55L80.7-32.55 70-1.55Q69.45 0 62.6 0L62.6 0Q60.55 0 59.85-0.35 59.15-0.7 58.9-1.55L58.9-1.55 56.3-10.25 55.7-10.25 53.05-1.55Q52.6 0 46.15 0ZM108.55 0L108.55 0 87.35 0Q84.9 0 84.05-0.35 83.2-0.7 83.2-1.45L83.2-1.45 83.2-33.1Q83.2-34.4 84.37-34.95 85.55-35.5 88.6-35.5L88.6-35.5 108.7-35.5Q109.75-35.5 109.75-32.02 109.75-28.55 109.3-26.73 108.85-24.9 108.1-24.9L108.1-24.9Q104.85-24.9 97.15-25.55L97.15-25.55 97.15-22.2Q104.55-22.5 106.8-22.5L106.8-22.5Q108.15-22.5 108.15-19.35 108.15-16.2 107.62-14.58 107.1-12.95 106.2-12.95L106.2-12.95 97.15-13.15 97.15-9.95Q105.85-10.6 109.15-10.6L109.15-10.6Q110.2-10.6 110.2-7.1 110.2-3.6 109.75-1.8 109.3 0 108.55 0ZM139.14-2.1Q137.64-1 134.97-0.28 132.29 0.45 128.07 0.45 123.84 0.45 120.04-0.25 116.24-0.95 114.59-1.8 112.94-2.65 112.94-3.45L112.94-3.45Q112.94-6.25 113.74-9.28 114.54-12.3 115.64-12.3L115.64-12.3Q115.84-12.3 119.79-10.95 123.74-9.6 125.74-9.6 127.74-9.6 128.34-10.03 128.94-10.45 128.94-11.25 128.94-12.05 127.84-12.68 126.74-13.3 125.09-13.78 123.44-14.25 121.52-15.15 119.59-16.05 117.94-17.15 116.29-18.25 115.19-20.28 114.09-22.3 114.09-24.9L114.09-24.9Q114.09-36 127.34-36L127.34-36Q132.29-36 135.89-35.38 139.49-34.75 140.97-33.98 142.44-33.2 142.44-32.45L142.44-32.45Q142.44-29.85 141.22-26.85 139.99-23.85 138.84-23.85L138.84-23.85Q138.64-23.85 137.54-24.3L137.54-24.3Q134.24-25.75 132.07-25.75 129.89-25.75 129.12-25.35 128.34-24.95 128.34-24.13 128.34-23.3 129.44-22.78 130.54-22.25 132.17-21.83 133.79-21.4 135.72-20.53 137.64-19.65 139.29-18.48 140.94-17.3 142.04-15.15 143.14-13 143.14-10.15L143.14-10.15Q143.14-7.15 141.59-4.7L141.59-4.7Q140.64-3.2 139.14-2.1ZM163.29 0.45L163.29 0.45Q159.14 0.45 156.17-0.33 153.19-1.1 150.69-3.1L150.69-3.1Q145.64-7.05 145.64-18.25L145.64-18.25Q145.64-22.95 147.02-26.45 148.39-29.95 150.84-32L150.84-32Q155.64-36 163.29-36L163.29-36Q167.24-36 170.17-35.3 173.09-34.6 175.69-32.75L175.69-32.75Q180.94-28.95 180.94-18.25L180.94-18.25Q180.94-8.65 176.19-4.1 171.44 0.45 163.29 0.45ZM161.64-8.13Q162.24-7.4 163.29-7.4 164.34-7.4 164.94-8.13 165.54-8.85 165.94-11.23 166.34-13.6 166.34-17.85 166.34-22.1 165.94-24.4 165.54-26.7 164.94-27.4 164.34-28.1 163.29-28.1 162.24-28.1 161.64-27.4 161.04-26.7 160.64-24.4 160.24-22.1 160.24-17.85 160.24-13.6 160.64-11.23 161.04-8.85 161.64-8.13ZM191.89 0L191.89 0Q190.64 0 188.26 0 185.89 0 185.04-0.35 184.19-0.7 184.19-1.45L184.19-1.45 184.19-33Q184.19-34.15 187.26-34.83 190.34-35.5 193.84-35.5 197.34-35.5 198.84-34.6 200.34-33.7 200.59-32.7L200.59-32.7 203.99-19.5 204.44-19.5 207.64-32.1Q207.99-33.45 210.91-34.48 213.84-35.5 217.34-35.5 220.84-35.5 222.51-34.95 224.19-34.4 224.19-33.55L224.19-33.55 224.19-1.45Q224.19-0.8 221.34-0.4 218.49 0 214.39 0 210.29 0 210.29-1.45L210.29-1.45Q210.29-5.4 211.14-15.5L211.14-15.5 210.69-15.5 208.09-2.45Q207.94-1.7 206.86-1.35 205.79-1 203.64-1 201.49-1 201.01-1.3 200.54-1.6 200.39-2.45L200.39-2.45 197.69-15.5 197.24-15.5Q198.14-5.2 198.14-1.45L198.14-1.45Q198.14-0.15 191.89 0ZM253.54 0L253.54 0 232.34 0Q229.89 0 229.04-0.35 228.19-0.7 228.19-1.45L228.19-1.45 228.19-33.1Q228.19-34.4 229.36-34.95 230.54-35.5 233.59-35.5L233.59-35.5 253.69-35.5Q254.74-35.5 254.74-32.02 254.74-28.55 254.29-26.73 253.84-24.9 253.09-24.9L253.09-24.9Q249.84-24.9 242.14-25.55L242.14-25.55 242.14-22.2Q249.54-22.5 251.79-22.5L251.79-22.5Q253.14-22.5 253.14-19.35 253.14-16.2 252.61-14.58 252.09-12.95 251.19-12.95L251.19-12.95 242.14-13.15 242.14-9.95Q250.84-10.6 254.14-10.6L254.14-10.6Q255.19-10.6 255.19-7.1 255.19-3.6 254.74-1.8 254.29 0 253.54 0ZM279.78-9.5L279.78-9.5 259.53-9.5Q258.98-9.5 258.58-10.43 258.18-11.35 258.18-13.08 258.18-14.8 259.28-16.57 260.38-18.35 261.43-18.35L261.43-18.35 281.53-18.35Q282.83-18.35 282.83-15.1L282.83-15.1Q282.83-13.45 281.78-11.48 280.73-9.5 279.78-9.5ZM300.28-1.45Q300.28-0.8 297.26-0.4 294.23 0 291.16 0 288.08 0 287.21-0.35 286.33-0.7 286.33-1.45L286.33-1.45 286.33-32.2Q286.33-33.45 289.23-34.48 292.13-35.5 295.53-35.5L295.53-35.5Q300.28-35.5 300.28-33.25L300.28-33.25 300.28-22.25 304.73-22.25 304.73-32.2Q304.73-33.45 307.66-34.48 310.58-35.5 313.98-35.5L313.98-35.5Q318.68-35.5 318.68-33.25L318.68-33.25 318.68-1.45Q318.68-0.8 315.63-0.4 312.58 0 309.53 0 306.48 0 305.61-0.35 304.73-0.7 304.73-1.45L304.73-1.45 304.73-12.9 300.28-12.9 300.28-1.45ZM336.48-2.55Q336.38-1.1 334.95-0.55 333.53 0 329.83 0 326.13 0 323.65-0.68 321.18-1.35 321.18-2.4L321.18-2.4Q321.18-3.6 325.63-17.73 330.08-31.85 330.73-34L330.73-34Q330.98-34.65 334.75-35.08 338.53-35.5 342.85-35.5 347.18-35.5 347.63-34L347.63-34Q357.08-2.6 357.08-2.1 357.08-1.6 356.48-1.1L356.48-1.1Q355.08 0 350.93 0L350.93 0Q342.08 0 341.88-2.1L341.88-2.1 341.53-5.35 336.73-5.35 336.48-2.55ZM337.78-14.85L340.48-14.85 339.73-23.85 338.63-23.85 337.78-14.85ZM367.28 0L367.28 0Q366.03 0 363.65 0 361.28 0 360.43-0.35 359.58-0.7 359.58-1.45L359.58-1.45 359.58-33Q359.58-34.15 362.65-34.83 365.73-35.5 369.23-35.5 372.73-35.5 374.23-34.6 375.73-33.7 375.98-32.7L375.98-32.7 379.38-19.5 379.83-19.5 383.03-32.1Q383.38-33.45 386.3-34.48 389.23-35.5 392.73-35.5 396.23-35.5 397.9-34.95 399.58-34.4 399.58-33.55L399.58-33.55 399.58-1.45Q399.58-0.8 396.73-0.4 393.88 0 389.78 0 385.68 0 385.68-1.45L385.68-1.45Q385.68-5.4 386.53-15.5L386.53-15.5 386.08-15.5 383.48-2.45Q383.33-1.7 382.25-1.35 381.18-1 379.03-1 376.88-1 376.4-1.3 375.93-1.6 375.78-2.45L375.78-2.45 373.08-15.5 372.63-15.5Q373.53-5.2 373.53-1.45L373.53-1.45Q373.53-0.15 367.28 0ZM429.02-2.1Q427.52-1 424.85-0.28 422.17 0.45 417.95 0.45 413.72 0.45 409.92-0.25 406.12-0.95 404.47-1.8 402.82-2.65 402.82-3.45L402.82-3.45Q402.82-6.25 403.62-9.28 404.42-12.3 405.52-12.3L405.52-12.3Q405.72-12.3 409.67-10.95 413.62-9.6 415.62-9.6 417.62-9.6 418.22-10.03 418.82-10.45 418.82-11.25 418.82-12.05 417.72-12.68 416.62-13.3 414.97-13.78 413.32-14.25 411.4-15.15 409.47-16.05 407.82-17.15 406.17-18.25 405.07-20.28 403.97-22.3 403.97-24.9L403.97-24.9Q403.97-36 417.22-36L417.22-36Q422.17-36 425.77-35.38 429.37-34.75 430.85-33.98 432.32-33.2 432.32-32.45L432.32-32.45Q432.32-29.85 431.1-26.85 429.87-23.85 428.72-23.85L428.72-23.85Q428.52-23.85 427.42-24.3L427.42-24.3Q424.12-25.75 421.95-25.75 419.77-25.75 419-25.35 418.22-24.95 418.22-24.13 418.22-23.3 419.32-22.78 420.42-22.25 422.05-21.83 423.67-21.4 425.6-20.53 427.52-19.65 429.17-18.48 430.82-17.3 431.92-15.15 433.02-13 433.02-10.15L433.02-10.15Q433.02-7.15 431.47-4.7L431.47-4.7Q430.52-3.2 429.02-2.1ZM457.52-1.2Q457.52-0.65 454.45-0.33 451.37 0 448.3 0 445.22 0 444.4-0.28 443.57-0.55 443.57-1.2L443.57-1.2 443.57-22.7 436.62-22.7Q436.07-22.7 435.67-24.1 435.27-25.5 435.27-28.28 435.27-31.05 435.87-33.27 436.47-35.5 437.47-35.5L437.47-35.5 464.52-35.5Q465.27-35.5 465.55-34.1 465.82-32.7 465.82-30.05 465.82-27.4 465.27-25.05 464.72-22.7 463.77-22.7L463.77-22.7 457.52-22.7 457.52-1.2ZM494.17 0L494.17 0 472.97 0Q470.52 0 469.67-0.35 468.82-0.7 468.82-1.45L468.82-1.45 468.82-33.1Q468.82-34.4 469.99-34.95 471.17-35.5 474.22-35.5L474.22-35.5 494.32-35.5Q495.37-35.5 495.37-32.02 495.37-28.55 494.92-26.73 494.47-24.9 493.72-24.9L493.72-24.9Q490.47-24.9 482.77-25.55L482.77-25.55 482.77-22.2Q490.17-22.5 492.42-22.5L492.42-22.5Q493.77-22.5 493.77-19.35 493.77-16.2 493.24-14.58 492.72-12.95 491.82-12.95L491.82-12.95 482.77-13.15 482.77-9.95Q491.47-10.6 494.77-10.6L494.77-10.6Q495.82-10.6 495.82-7.1 495.82-3.6 495.37-1.8 494.92 0 494.17 0ZM513.32-11.7L513.32-1.45Q513.32-0.8 510.27-0.4 507.22 0 504.14 0 501.07 0 500.19-0.35 499.32-0.7 499.32-1.45L499.32-1.45 499.32-33.6Q499.32-34.9 502.59-35.45 505.87-36 510.87-36 515.87-36 517.34-35.98 518.82-35.95 520.82-35.8 522.82-35.65 523.99-35.3 525.17-34.95 526.59-34.4 528.02-33.85 528.82-32.98 529.62-32.1 530.37-30.9L530.37-30.9Q531.72-28.75 531.72-24.78 531.72-20.8 530.39-18.07 529.07-15.35 526.87-13.95L526.87-13.95Q532.62-4.9 532.62-2.45 532.62 0 522.77 0L522.77 0Q519.92 0 518.82-0.25 517.72-0.5 517.42-1.35L517.42-1.35 514.17-11.65 513.32-11.7ZM513.32-28.1L513.32-19.4 514.62-19.4Q517.52-19.4 517.52-23.9L517.52-23.9Q517.52-26.2 516.74-27.15 515.97-28.1 514.97-28.1L514.97-28.1 513.32-28.1Z" opacity="1" transform="matrix(1,0,0,1,0,0)" fill="#fbcd08" class="wordmark-text-0" data-fill-palette-color="quaternary" id="text-0"></path></svg></g></svg></g><g transform="matrix(1,0,0,1,273.5336703895163,28.260617222587612)"><svg viewBox="0 0 43.18736961048368 11.497839727971437" height="11.497839727971437" width="43.18736961048368"><g transform="matrix(1,0,0,1,0,0)"><svg width="43.18736961048368" viewBox="1.51 -36.52 142.13 37.84" height="11.497839727971437" data-palette-color="#fbcd08"><path d="M35.3-19.04L35.3-19.04Q35.3-17.24 35.08-15.41 34.86-13.57 34.62-11.77L34.62-11.77Q34.23-8.59 33.74-5.49 33.25-2.39 32.76 0.78L32.76 0.78Q30.37 0.83 28.08 0.98 25.78 1.12 23.44 1.32L23.44 1.32Q23.44-2.25 23.44-5.74 23.44-9.23 23.29-12.74L23.29-12.74Q23.29-13.43 23.27-14.5 23.24-15.58 23.05-16.26L23.05-16.26Q22.75-17.38 22.31-17.8 21.88-18.21 20.61-18.21L20.61-18.21Q19.73-18.21 18.55-18.02 17.38-17.82 16.16-17.53 14.94-17.24 13.84-16.87 12.74-16.5 12.01-16.11L12.01-16.11Q11.62-12.16 11.06-8.25 10.5-4.35 10.35-0.34L10.35-0.34 3.47-0.68Q2.93-9.47 2.44-18.19 1.95-26.9 1.51-35.69L1.51-35.69 12.26-36.38Q12.16-33.15 12.06-29.96 11.96-26.76 11.87-23.54L11.87-23.54Q12.79-24.32 13.96-24.73 15.14-25.15 16.38-25.29 17.63-25.44 18.9-25.44 20.17-25.44 21.34-25.44L21.34-25.44Q23.1-25.44 25.32-25.32 27.54-25.2 29.57-24.63 31.59-24.07 33.15-22.85 34.72-21.63 35.25-19.43L35.25-19.43Q35.3-19.34 35.3-19.24 35.3-19.14 35.3-19.04ZM73-18.12L73-18.12Q66.6-17.77 60.25-17.55 53.9-17.33 47.51-17.09L47.51-17.09Q47.46-16.89 47.46-16.7 47.46-16.5 47.46-16.31L47.46-16.31Q47.46-14.65 48.22-13.77 48.97-12.89 50.1-12.52 51.22-12.16 52.59-12.11 53.95-12.06 55.12-12.06L55.12-12.06Q58.4-12.06 61.67-12.28 64.94-12.5 68.26-12.74L68.26-12.74 68.65-4.98Q65.43-4.83 62.23-4.74 59.03-4.64 55.81-4.64L55.81-4.64Q55.12-4.64 53.29-4.66 51.46-4.69 49.39-4.81 47.31-4.93 45.51-5.13 43.7-5.32 43.11-5.66L43.11-5.66Q41.6-6.54 40.74-7.91 39.89-9.28 39.43-10.89 38.96-12.5 38.79-14.18 38.62-15.87 38.57-17.43L38.57-17.43Q38.52-17.68 38.55-17.94 38.57-18.21 38.57-18.46L38.57-18.46Q38.57-21.04 39.13-23.27 39.69-25.49 41.21-27.59L41.21-27.59Q42.23-29.05 44.24-30.03 46.24-31.01 48.58-31.57 50.93-32.13 53.27-32.35 55.61-32.57 57.32-32.57L57.32-32.57Q58.84-32.57 61.03-32.3 63.23-32.03 65.4-31.4 67.58-30.76 69.33-29.76 71.09-28.76 71.73-27.29L71.73-27.29Q71.82-27 71.95-26.29 72.07-25.59 72.21-24.68 72.36-23.78 72.48-22.75 72.6-21.73 72.7-20.8 72.8-19.87 72.87-19.14 72.95-18.41 73-18.12ZM50.05-21.14L66.35-21.68Q66.06-23.83 65.26-25.07 64.45-26.32 63.25-26.93 62.06-27.54 60.52-27.71 58.98-27.88 57.22-27.88L57.22-27.88Q56.64-27.88 55.76-27.86 54.88-27.83 54-27.71 53.12-27.59 52.34-27.34 51.56-27.1 51.12-26.66L51.12-26.66Q50.78-26.37 50.56-25.85 50.34-25.34 50.19-24.76 50.05-24.17 49.97-23.61 49.9-23.05 49.9-22.66L49.9-22.66Q49.9-21.88 50.05-21.14L50.05-21.14ZM109.71-26.9L109.71-26.9 97.16-17.82Q97.31-17.24 97.75-15.94 98.19-14.65 98.73-13.26 99.26-11.87 99.87-10.67 100.48-9.47 101.02-9.13L101.02-9.13Q101.36-8.89 101.9-8.74 102.44-8.59 103-8.5 103.56-8.4 104.12-8.37 104.68-8.35 105.07-8.35L105.07-8.35Q105.76-8.35 106.49-8.4 107.22-8.45 107.91-8.54L107.91-8.54Q107.81-7.91 107.76-7.25 107.71-6.59 107.71-5.91L107.71-5.91Q107.71-4.74 107.76-3.56 107.81-2.39 107.81-1.27L107.81-1.27Q107.47-1.22 106.61-1.15 105.76-1.07 104.66-1 103.56-0.93 102.34-0.83 101.12-0.73 100.07-0.66 99.02-0.59 98.26-0.59 97.5-0.59 97.31-0.68L97.31-0.68Q96.48-1.07 95.7-1.51 94.92-1.95 94.38-2.73L94.38-2.73Q94.14-3.08 93.57-4.59 93.01-6.1 92.4-7.91 91.79-9.72 91.28-11.28 90.77-12.84 90.62-13.28L90.62-13.28 85.93-10.25 85.93-1.76 76.26-0.93Q76.56-7.76 76.9-14.53 77.24-21.29 77.24-28.17L77.24-28.17Q77.24-30.27 77.22-32.32 77.19-34.38 77.14-36.52L77.14-36.52Q79.15-36.13 81.12-36.04 83.1-35.94 85.1-35.74L85.1-35.74 85.1-17.48Q88.91-19.82 92.55-22.27 96.19-24.71 99.6-27.64L99.6-27.64Q102.19-27.34 104.66-27.2 107.12-27.05 109.71-26.9ZM143.64-18.12L143.64-18.12Q137.25-17.77 130.9-17.55 124.55-17.33 118.16-17.09L118.16-17.09Q118.11-16.89 118.11-16.7 118.11-16.5 118.11-16.31L118.11-16.31Q118.11-14.65 118.86-13.77 119.62-12.89 120.74-12.52 121.87-12.16 123.23-12.11 124.6-12.06 125.77-12.06L125.77-12.06Q129.05-12.06 132.32-12.28 135.59-12.5 138.91-12.74L138.91-12.74 139.3-4.98Q136.08-4.83 132.88-4.74 129.68-4.64 126.46-4.64L126.46-4.64Q125.77-4.64 123.94-4.66 122.11-4.69 120.04-4.81 117.96-4.93 116.15-5.13 114.35-5.32 113.76-5.66L113.76-5.66Q112.25-6.54 111.39-7.91 110.54-9.28 110.08-10.89 109.61-12.5 109.44-14.18 109.27-15.87 109.22-17.43L109.22-17.43Q109.17-17.68 109.2-17.94 109.22-18.21 109.22-18.46L109.22-18.46Q109.22-21.04 109.78-23.27 110.34-25.49 111.86-27.59L111.86-27.59Q112.88-29.05 114.89-30.03 116.89-31.01 119.23-31.57 121.57-32.13 123.92-32.35 126.26-32.57 127.97-32.57L127.97-32.57Q129.48-32.57 131.68-32.3 133.88-32.03 136.05-31.4 138.22-30.76 139.98-29.76 141.74-28.76 142.38-27.29L142.38-27.29Q142.47-27 142.6-26.29 142.72-25.59 142.86-24.68 143.01-23.78 143.13-22.75 143.25-21.73 143.35-20.8 143.45-19.87 143.52-19.14 143.6-18.41 143.64-18.12ZM120.7-21.14L137-21.68Q136.71-23.83 135.91-25.07 135.1-26.32 133.9-26.93 132.71-27.54 131.17-27.71 129.63-27.88 127.87-27.88L127.87-27.88Q127.29-27.88 126.41-27.86 125.53-27.83 124.65-27.71 123.77-27.59 122.99-27.34 122.21-27.1 121.77-26.66L121.77-26.66Q121.43-26.37 121.21-25.85 120.99-25.34 120.84-24.76 120.7-24.17 120.62-23.61 120.55-23.05 120.55-22.66L120.55-22.66Q120.55-21.88 120.7-21.14L120.7-21.14Z" opacity="1" transform="matrix(1,0,0,1,0,0)" fill="#fbcd08" class="slogan-text-1" data-fill-palette-color="quaternary" id="text-1"></path></svg></g></svg></g></svg></g></svg></g><g transform="matrix(1,0,0,1,362.6871,4.9628703467057775)"><svg viewBox="0 0 83.6181071677236 69.23219625714749" height="69.23219625714749" width="83.6181071677236"><g><svg xmlns="http://www.w3.org/2000/svg" xmlns:xlink="http://www.w3.org/1999/xlink" version="1.1" x="0" y="0" viewBox="3.5 11.500000000000007 93 77" style="enable-background:new 0 0 100 100;" xml:space="preserve" height="69.23219625714749" width="83.6181071677236" class="icon-icon-0" data-fill-palette-color="accent" id="icon-0"><g fill="#372e18" data-fill-palette-color="accent"><path d="M75.8 36.2c-0.3-1.3-0.7-2.6-1.2-3.8 3-2.1 4.8-5.6 4.8-9.4 0-6.3-5.2-11.5-11.5-11.5-4.3 0-8.2 2.4-10.1 6.1-2.5-0.7-5.1-1.1-7.9-1.1-2.7 0-5.4 0.4-7.9 1.1-2-3.7-5.9-6.1-10.1-6.1-6.3 0-11.5 5.2-11.5 11.5 0 3.8 1.8 7.3 4.8 9.4-0.5 1.2-0.9 2.5-1.2 3.8C12.1 38.9 3.5 49.6 3.5 62c0 14.6 11.9 26.5 26.5 26.5 7.8 0 15-3.3 20-9.1 5 5.8 12.2 9.1 20 9.1 14.6 0 26.5-11.9 26.5-26.5C96.5 49.6 87.9 38.9 75.8 36.2zM68 14.5c4.7 0 8.5 3.8 8.5 8.5 0 2.6-1.2 5-3.2 6.6-2.8-5-7.2-8.8-12.6-11C62.3 16.1 65 14.5 68 14.5zM23.5 23c0-4.7 3.8-8.5 8.5-8.5 3 0 5.7 1.6 7.2 4.1-5.4 2.2-9.8 6.1-12.6 11C24.7 28 23.5 25.6 23.5 23zM70 85.5c-7.5 0-14.3-3.4-18.8-9.4-0.3-0.4-0.7-0.6-1.2-0.6s-0.9 0.2-1.2 0.6c-4.5 6-11.3 9.4-18.8 9.4C17 85.5 6.5 75 6.5 62c0-11.3 8.1-21 19.2-23.1 0.6-0.1 1.1-0.6 1.2-1.2C28.9 27 38.4 19.5 50 19.5S71.1 27 73.1 37.7c0.1 0.6 0.6 1.1 1.2 1.2C85.4 41 93.5 50.7 93.5 62 93.5 75 83 85.5 70 85.5z" fill="#372e18" data-fill-palette-color="accent"></path><path d="M62 63.3c-0.8 0-1.5 0.7-1.5 1.5 0 2.3-1.9 4.2-4.2 4.2h-0.6c-2.3 0-4.2-1.9-4.2-4.2v-2.3c2.1-1.6 7.1-5.8 8.6-9.8 4.3-1.2 7.4-5.8 7.4-11.2 0-6.3-4.3-11.5-9.5-11.5-3.4 0-6.3 2.1-8 5.3-1.7-3.2-4.6-5.3-8-5.3-5.2 0-9.5 5.2-9.5 11.5 0 5.4 3.1 10.1 7.4 11.2 1.5 4 6.5 8.2 8.6 9.8v2.3c0 2.3-1.9 4.2-4.2 4.2h-0.6c-2.3 0-4.2-1.9-4.2-4.2 0-0.8-0.7-1.5-1.5-1.5s-1.5 0.7-1.5 1.5c0 4 3.2 7.2 7.2 7.2h0.6c2.3 0 4.4-1.1 5.7-2.8 1.3 1.7 3.4 2.8 5.7 2.8h0.6c4 0 7.2-3.2 7.2-7.2C63.5 64 62.9 63.3 62 63.3zM58 33c3.6 0 6.5 3.8 6.5 8.5 0 3.6-1.7 6.7-4.2 7.9v-0.1c-0.4-1.1-1.1-1.9-2.3-2.6 0.9-1 1.5-2.3 1.5-3.7 0-3-2.5-5.5-5.5-5.5-0.7 0-1.3 0.1-1.9 0.3C53.2 35 55.4 33 58 33zM54 40.5c1.4 0 2.5 1.1 2.5 2.5s-1.1 2.5-2.5 2.5-2.5-1.1-2.5-2.5S52.6 40.5 54 40.5zM42 46.7c-1.2 0.6-1.9 1.5-2.3 2.6 0 0.1 0 0.1 0 0.2-2.5-1.2-4.2-4.3-4.2-7.9 0-4.7 2.9-8.5 6.5-8.5 2.6 0 4.8 2 5.8 4.8-0.6-0.2-1.2-0.3-1.8-0.3-3 0-5.5 2.5-5.5 5.5C40.5 44.4 41.1 45.7 42 46.7zM48.5 43c0 1.4-1.1 2.5-2.5 2.5s-2.5-1.1-2.5-2.5 1.1-2.5 2.5-2.5S48.5 41.6 48.5 43zM50 59.9c-3.7-2.9-8.1-7.6-7.4-9.7 0.2-0.5 1.1-2 7.4-2l0 0c6.3 0 7.3 1.5 7.4 2C58.1 52.3 53.7 57 50 59.9z" fill="#372e18" data-fill-palette-color="accent"></path><path d="M39 57.2c0-0.6-0.4-1.2-1-1.4l-21-7c-0.8-0.3-1.6 0.2-1.9 0.9-0.3 0.8 0.2 1.6 0.9 1.9l12.2 4.1H11.5c-0.8 0-1.5 0.7-1.5 1.5s0.7 1.5 1.5 1.5h18.8l-16.4 7.1c-0.8 0.3-1.1 1.2-0.8 2 0.2 0.6 0.8 0.9 1.4 0.9 0.2 0 0.4 0 0.6-0.1l23-10C38.7 58.4 39 57.8 39 57.2z" fill="#372e18" data-fill-palette-color="accent"></path><path d="M88.5 55.8H71.8L84 51.7c0.8-0.3 1.2-1.1 0.9-1.9-0.3-0.8-1.1-1.2-1.9-0.9l-21 7c-0.6 0.2-1 0.7-1 1.4 0 0.6 0.3 1.2 0.9 1.4l23 10c0.2 0.1 0.4 0.1 0.6 0.1 0.6 0 1.1-0.3 1.4-0.9 0.3-0.8 0-1.6-0.8-2l-16.4-7.1h18.8c0.8 0 1.5-0.7 1.5-1.5S89.3 55.8 88.5 55.8z" fill="#372e18" data-fill-palette-color="accent"></path></g></svg></g></svg></g></svg></g><defs></defs></svg><rect width="395.52" height="70.15053089201179" fill="none" stroke="none" visibility="hidden"></rect></g></svg></g></svg>